<?xml version="1.0" encoding="UTF-8"?>
<svg width="68px" height="65px" viewBox="0 0 68 65" version="1.1" xmlns="http://www.w3.org/2000/svg" xmlns:xlink="http://www.w3.org/1999/xlink">
    <!-- Generator: Sketch 58 (84663) - https://sketch.com -->
    <title>social/behance</title>
    <desc>Created with Sketch.</desc>
    <defs>
        <filter x="-3.5%" y="-6.0%" width="106.9%" height="110.9%" filterUnits="objectBoundingBox" id="filter-1">
            <feOffset dx="0" dy="2" in="SourceAlpha" result="shadowOffsetOuter1"></feOffset>
            <feGaussianBlur stdDeviation="12" in="shadowOffsetOuter1" result="shadowBlurOuter1"></feGaussianBlur>
            <feColorMatrix values="0 0 0 0 0   0 0 0 0 0   0 0 0 0 0  0 0 0 0.5 0" type="matrix" in="shadowBlurOuter1" result="shadowMatrixOuter1"></feColorMatrix>
            <feMerge>
                <feMergeNode in="shadowMatrixOuter1"></feMergeNode>
                <feMergeNode in="SourceGraphic"></feMergeNode>
            </feMerge>
        </filter>
    </defs>
    <g id="Design" stroke="none" stroke-width="1" fill="none" fill-rule="evenodd">
        <g id="Profile-card-page" transform="translate(-747.000000, -673.000000)" fill="#2D354C">
            <g id="card" filter="url(#filter-1)" transform="translate(0.000000, 12.000000)">
                <g id="social-media" transform="translate(530.000000, 678.000000)">
                    <g id="social/mail" transform="translate(238.000000, 0.000000)">
                        <path d="M21.3888469,5 L4.6112107,5 C3.17140038,5 2,6.12493817 2,7.5076351 L2,19.201891 C2,20.584588 3.17140038,21.7095261 4.6112107,21.7095261 L21.3888469,21.7095261 C22.8286572,21.7095261 24,20.584588 24,19.201891 L24,7.5076351 C24,6.12493817 22.8286572,5 21.3888469,5 Z M21.3888469,19.4956911 L4.6112107,19.4956911 C4.39956872,19.4956911 4.21395018,19.3584347 4.21395018,19.201891 L4.21395018,9.05401487 L11.8020292,15.4602726 C11.9575941,15.5916565 12.1554184,15.6639694 12.3591151,15.6639694 L13.6406546,15.664027 C13.8442362,15.664027 14.0421756,15.5916565 14.1977981,15.4602726 L21.7862225,9.05378457 L21.7862225,19.2020062 C21.7862225,19.3584347 21.6004313,19.4956911 21.3888469,19.4956911 Z M13.0000288,13.4657945 L5.6196767,7.21383503 L20.3803809,7.21383503 L13.0000288,13.4657945 Z" id="Shape"></path>
                    </g>
                </g>
            </g>
        </g>
    </g>
</svg>